<svg width="504" height="504" viewBox="0 0 504 504" fill="none" xmlns="http://www.w3.org/2000/svg">
<g clip-path="url(#clip0_426_291)">
<path fill-rule="evenodd" clip-rule="evenodd" d="M253.571 255.429L250 251.5L245 257H252H255H259L255.5 253.5L253.571 255.429Z" fill="#BBBBBB"/>
<circle cx="253.5" cy="250" r="1.5" fill="#BBBBBB"/>
<rect x="244" y="246" width="16" height="12" rx="1" stroke="#BBBBBB" stroke-width="2"/>
<path d="M502.707 2.70711C503.098 2.31658 503.098 1.68342 502.707 1.29289C502.317 0.902369 501.683 0.902369 501.293 1.29289L502.707 2.70711ZM267.293 235.293C266.902 235.683 266.902 236.317 267.293 236.707C267.683 237.098 268.317 237.098 268.707 236.707L267.293 235.293ZM236.707 268.707C237.098 268.317 237.098 267.683 236.707 267.293C236.317 266.902 235.683 266.902 235.293 267.293L236.707 268.707ZM1.29292 501.293C0.902399 501.683 0.902399 502.317 1.29292 502.707C1.68345 503.098 2.31661 503.098 2.70714 502.707L1.29292 501.293ZM2.70711 1.29289C2.31658 0.902369 1.68342 0.902369 1.29289 1.29289C0.902369 1.68342 0.902369 2.31658 1.29289 2.70711L2.70711 1.29289ZM235.293 236.707C235.683 237.098 236.317 237.098 236.707 236.707C237.098 236.317 237.098 235.683 236.707 235.293L235.293 236.707ZM268.707 267.293C268.317 266.902 267.683 266.902 267.293 267.293C266.902 267.683 266.902 268.317 267.293 268.707L268.707 267.293ZM501.293 502.707C501.683 503.098 502.317 503.098 502.707 502.707C503.098 502.317 503.098 501.683 502.707 501.293L501.293 502.707ZM501.293 1.29289L267.293 235.293L268.707 236.707L502.707 2.70711L501.293 1.29289ZM235.293 267.293L1.29292 501.293L2.70714 502.707L236.707 268.707L235.293 267.293ZM1.29289 2.70711L235.293 236.707L236.707 235.293L2.70711 1.29289L1.29289 2.70711ZM267.293 268.707L501.293 502.707L502.707 501.293L268.707 267.293L267.293 268.707Z" fill="#BBBBBB"/>
</g>
<rect x="1" y="1" width="502" height="502" stroke="#BBBBBB" stroke-width="2" stroke-linejoin="round"/>
<defs>
<clipPath id="clip0_426_291">
<rect x="2" y="2" width="500" height="500" fill="white"/>
</clipPath>
</defs>
</svg>
